<svg xmlns="http://www.w3.org/2000/svg" viewBox="0 0 640 560">
  <defs>
    <clipPath id="lens-clip-full">
      <circle cx="185" cy="165" r="95"/>
    </clipPath>
  </defs>

  <rect x="0" y="0" width="640" height="560" fill="#ffffff"/>

  <g transform="translate(190 60) scale(0.65)">
    <g clip-path="url(#lens-clip-full)">
      <rect x="107" y="87"  width="46" height="46" rx="8" fill="#d1495b"/>
      <rect x="162" y="87"  width="46" height="46" rx="8" fill="#3f8ecb"/>
      <rect x="217" y="87"  width="46" height="46" rx="8" fill="#cbb994"/>

      <rect x="107" y="142" width="46" height="46" rx="8" fill="#3f8ecb"/>
      <rect x="162" y="142" width="46" height="46" rx="8" fill="#cbb994"/>
      <rect x="217" y="142" width="46" height="46" rx="8" fill="#d1495b"/>

      <rect x="107" y="197" width="46" height="46" rx="8" fill="#cbb994"/>
      <rect x="162" y="197" width="46" height="46" rx="8" fill="#d1495b"/>
      <rect x="217" y="197" width="46" height="46" rx="8" fill="#3f8ecb"/>
    </g>

    <circle cx="185" cy="165" r="110" fill="none" stroke="#1f2a33" stroke-width="22"/>
    <line x1="262.8" y1="242.8" x2="330" y2="310" stroke="#1f2a33" stroke-width="24" stroke-linecap="round"/>
  </g>

  <text x="320" y="440" text-anchor="middle" font-family="Arial, Helvetica, sans-serif" font-weight="800" font-size="64" fill="#1f2a33">EduCodenames</text>
  <text x="320" y="480" text-anchor="middle" font-family="Arial, Helvetica, sans-serif" font-weight="600" font-size="24" letter-spacing="3" fill="#5b6b76">CODENAMES FÜR DEN UNTERRICHT</text>
</svg>
